Genre: Drama | Romance 
Language:English
IMDb:http://www.imdb.com/title/tt1120985/
Source:RERIP.720p.Bluray-CBGB
Subtitles:Romana


Format : MPEG-4
Format profile : Base Media
Codec ID : isom
File size : 2.67 GiB
Duration : 1h 52mn
Overall bit rate : 3 409 Kbps


Video
Format profile : High@L4.1
Format settings, CABAC : Yes
Format settings, ReFrames : 3 frames
Format settings, GOP : M=1, N=24
Codec ID : avc1
Codec ID/Info : Advanced Video Coding
Duration : 1h 52mn
Bit rate mode : Variable
Bit rate : 3 000 Kbps
Maximum bit rate : 13.8 Mbps
Width : 1 200 pixels
Height : 720 pixels
Display aspect ratio : 1.667
Frame rate mode : Constant
Frame rate : 23.976 fps
Color space : YUV
Chroma subsampling : 4:2:0
Bit depth : 8 bits
Scan type : Progressive
Bits/(Pixel*Frame) : 0.145
Stream size : 2.33 GiB (87%)
Writing library : x264


Audio
ID : 2
Format : AAC
Format/Info : Advanced Audio Codec
Format version : Version 4
Format profile : LC
Format settings, SBR : No
Codec ID : 40
Duration : 1h 52mn
Bit rate mode : Variable
Bit rate : 429 Kbps
Maximum bit rate : 598 Kbps
Channel(s) : 6 channels
Channel positions : Front: L C R, Side: L R, LFE
Sampling rate : 48.0 KHz
Stream size : 344 MiB (13%)


Plot:
The film centers on a contemporary married couple, charting their evolution over a span of years by cross-cutting between time periods.

Screens:
 
http://leetleech.org/images/93756045250484930074.png 
http://leetleech.org/images/42919117173971744525.png 
http://leetleech.org/images/09533140573590153704.png 
http://leetleech.org/images/08176279617118546583.png 
http://leetleech.org/images/54238616580246667849.png

Greets:

INK,CRYS,IMAGINE,LKRG,FXG,3Li,FLAWL3SS,TA,iLLUSiON,ViSiON,DTRG SAFCuk009,LU,TheFalcon007,MYSTiC,PrisM,Noir,WBZ,LAP,Rx,Kingdom,SAFCuk009+Fabreezy,HDLiTE,TWiZTED,ExtraTorrentRG.ELEKTRI4KA,MAGNAT,CM8
And to all the other p2p grps past and present.